# xmcd
#
# Track frame offsets:
#	150
#	12527
#	23862
#	40417
#	52628
#	68007
#	85300
#	98292
#	111046
#	126869
#	141573
#	163717
#	176988
#	190647
#	208518
#	219293
#	231444
#	247147
#	257694
#	273400
#	286473
#	301342
#	311913
#	322137
#
# Disc length: 4580 seconds
#
# Revision: 1
# Processed by: cddbd v1.5.2PL0 Copyright (c) Steve Scherf et al.
# Submitted via: audiograbber 1.83.01
#
DISCID=6311e218
DTITLE=Western Heart - Western Heart 035 
DYEAR=1900
DGENRE=
TTITLE0=If I Ever Fall In Love With A Honky Tonk Woman - Ron Wayne Atwood
TTITLE1=Had I Known What The Cards Hold For Me  - Ann Brown
TTITLE2=No One Misses Me  - Dick Damron
TTITLE3=Go Away  - Paula James
TTITLE4=What Went Wrong  - Paul Mateki and Martin Moss
TTITLE5=Good Guys Finish Last  - Ronni Rae Rivers
TTITLE6=Bodacious  - Stevie Cee
TTITLE7=Lets Go Back  - Cheryl K Warner
TTITLE8=Hello Darling - Butch Carie
TTITLE9=One Heart  - Ernie Ashworth
TTITLE10=Fallen From The Trees  - Don Mckay
TTITLE11=Sweet Fire  - Michael Elvin Hunt
TTITLE12=Youn Joe Clark  - Lonnie Joe Howell
TTITLE13=It´s The Women Behind The Man  - Karen Dee
TTITLE14=Lousianna Anna  - Hal Willis
TTITLE15=The Night - Duncan Ferguson
TTITLE16=I´m Sorry If I Hurt You  - Dough Hamilton
TTITLE17=Cattle Call  - Andy Rivers
TTITLE18=Women Wild, Whiskey Strong - B. Jeff Stone
TTITLE19=Rumplemintz Shots  - Billy Lee Lewis
TTITLE20=Forever  - Mike Runnels
TTITLE21=Forever And Ever  - Mike Bella
TTITLE22=Puttin The Axe  - Jim Moultin 
TTITLE23=Slevo  - Ted Riser
EXTD=
EXTT0=
EXTT1=
EXTT2=
EXTT3=
EXTT4=
EXTT5=
EXTT6=
EXTT7=
EXTT8=
EXTT9=
EXTT10=
EXTT11=
EXTT12=
EXTT13=
EXTT14=
EXTT15=
EXTT16=
EXTT17=
EXTT18=
EXTT19=
EXTT20=
EXTT21=
EXTT22=
EXTT23=
PLAYORDER=
